# xmcd CD database file
#
# Track frame offsets:
#	150
#	13413
#	30122
#	43745
#	56584
#	71116
#	84222
#	97302
#	110976
#	123804
#	136557
#	149772
#	162354
#	177117
#	189430
#	202873
#	216568
#	229874
#	242987
#	256169
#	270148
#	284270
#	296826
#	310590
#	342310
#
# Disc length: 4705 seconds
#
# Revision: 0
# Processed by: cddbd v1.5.2PL0 Copyright (c) Steve Scherf et al.
# Submitted via: CDex 1.51
#
DISCID=75125f19
DTITLE=Gene Ammons - My Foolish Heart
DYEAR=1950
DGENRE=Jazz
TTITLE0=Tenor Eleven
TTITLE1=Goodbye
TTITLE2=You Go To My Head
TTITLE3=My Foolish Heart
TTITLE4=Jug Head Ramble
TTITLE5=Can Anyone Explain
TTITLE6=Don't Do Me Wrong
TTITLE7=Prelude To a Kiss
TTITLE8=Baby, Won't You Please Say Yes
TTITLE9=Happiness Is a Thing Called Joe
TTITLE10=You'r Not The Kind
TTITLE11=I'll Walk Alone
TTITLE12=Old Folks
TTITLE13=Beezy
TTITLE14=Somewhere Along The Way
TTITLE15=Just Chips
TTITLE16=Street Of Dreams
TTITLE17=Good Time Blues
TTITLE18=Travellin' Light
TTITLE19=Red Top
TTITLE20=Fuzzy
TTITLE21=Stayrway To The Stars
TTITLE22=Jim Dawgs
TTITLE23=Big Slam (Part 1)
TTITLE24=Data
EXTD=YEAR: 1950
EXTT0=
EXTT1=
EXTT2=
EXTT3=
EXTT4=
EXTT5=
EXTT6=
EXTT7=
EXTT8=
EXTT9=
EXTT10=
EXTT11=
EXTT12=
EXTT13=
EXTT14=
EXTT15=
EXTT16=
EXTT17=
EXTT18=
EXTT19=
EXTT20=
EXTT21=
EXTT22=
EXTT23=
EXTT24=
PLAYORDER=
